# xmcd
#
# Track frame offsets:
#	150
#	20126
#	39729
#	53984
#	71084
#	88731
#
# Disc length: 1443 seconds
#
# Revision: 0
# Processed by: cddbd v1.5.2PL0 Copyright (c) Steve Scherf et al.
# Submitted via: SynApp - FreeCDDB Version: 2.3
#
DISCID=5405a106
DTITLE=Paddy Korn - Roadblock
DYEAR=2004
DGENRE=Blues
TTITLE0=Born Under A Bad Sign
TTITLE1=Roadblock
TTITLE2=Cajun Moon
TTITLE3=Girl I Wanna Dance With You
TTITLE4=Get Out Of My Live Woman
TTITLE5=She's Out There Somewhere
EXTD=
EXTT0=
EXTT1=
EXTT2=
EXTT3=
EXTT4=
EXTT5=
PLAYORDER=
